<?xml version="1.0" encoding="utf-8"?>
<!-- Generator: Adobe Illustrator 27.5.0, SVG Export Plug-In . SVG Version: 6.00 Build 0)  -->
<svg version="1.1" xmlns="http://www.w3.org/2000/svg" xmlns:xlink="http://www.w3.org/1999/xlink" x="0px" y="0px"
	 viewBox="0 0 500 500" style="enable-background:new 0 0 500 500;" xml:space="preserve">
<g id="BACKGROUND">
	<rect style="opacity:0.06;fill:#ACCFFD;" width="500" height="500"/>
</g>
<g id="OBJECTS">
	
		<ellipse transform="matrix(0.7071 -0.7071 0.7071 0.7071 -97.3103 247.0638)" style="opacity:0.29;fill:#ACCFFD;" cx="249.577" cy="240.996" rx="210.299" ry="210.299"/>
	<g>
		<path style="fill:#9DD0FF;" d="M440.892,329.525c0,1.362-1.105,2.467-2.467,2.467c-1.363,0-2.467-1.104-2.467-2.467
			c0-1.363,1.105-2.467,2.467-2.467C439.787,327.058,440.892,328.163,440.892,329.525z"/>
		<path style="fill:#9DD0FF;" d="M441.082,317.474c0,1.363-1.105,2.467-2.467,2.467s-2.467-1.104-2.467-2.467
			c0-1.362,1.105-2.467,2.467-2.467S441.082,316.112,441.082,317.474z"/>
		<path style="fill:#9DD0FF;" d="M441.082,305.424c0,1.363-1.105,2.467-2.467,2.467s-2.467-1.104-2.467-2.467
			c0-1.362,1.105-2.467,2.467-2.467S441.082,304.061,441.082,305.424z"/>
	</g>
	<g>
		<defs>
			<path id="XMLID_3_" d="M363.848,42.891c-25.15,0.417-48.281,8.859-67.006,22.838c-16.301-4.487-33.507-6.756-51.267-6.462
				c-100.242,1.66-180.159,84.269-178.498,184.511c0.059,3.591,0.226,7.154,0.491,10.69c-19.367,21.015-31.003,49.22-30.493,80.05
				c1.055,63.683,53.535,114.454,117.219,113.399c27.524-0.456,52.632-10.524,72.19-26.945c8.215,0.997,16.596,1.445,25.104,1.305
				c94.692-1.568,171.246-75.37,178.033-168.034c31.573-21.037,52.121-57.201,51.446-97.953
				C480.012,92.607,427.532,41.836,363.848,42.891z"/>
		</defs>
		<use xlink:href="#XMLID_3_"  style="overflow:visible;opacity:0.88;fill:#ACCFFD;"/>
		<clipPath id="XMLID_00000078724653983973214000000005358130146433885373_">
			<use xlink:href="#XMLID_3_"  style="overflow:visible;opacity:0.88;"/>
		</clipPath>
		
			<path style="clip-path:url(#XMLID_00000078724653983973214000000005358130146433885373_);fill:none;stroke:#FFFFFF;stroke-width:1.5883;stroke-miterlimit:10;" d="
			M325.129,240.165l-264.06,20.946c-5.053,0.401-9.475-3.371-9.876-8.424L34.643,44.042c-0.401-5.053,3.371-9.475,8.424-9.876
			l264.06-20.946c5.054-0.401,9.475,3.371,9.876,8.424l16.55,208.644C333.954,235.342,330.183,239.764,325.129,240.165z"/>
		
			<path style="clip-path:url(#XMLID_00000078724653983973214000000005358130146433885373_);fill:none;stroke:#FFFFFF;stroke-width:1.5883;stroke-miterlimit:10;" d="
			M537.898,441.834l-264.06,20.946c-5.053,0.401-9.475-3.371-9.876-8.424l-16.55-208.644c-0.401-5.054,3.371-9.475,8.424-9.876
			l264.06-20.946c5.054-0.401,9.475,3.371,9.876,8.424l16.55,208.644C546.723,437.012,542.951,441.433,537.898,441.834z"/>
		
			<path style="clip-path:url(#XMLID_00000078724653983973214000000005358130146433885373_);fill:none;stroke:#FFFFFF;stroke-width:1.5883;stroke-miterlimit:10;" d="
			M635.101,234.431l-264.06,20.946c-5.054,0.401-9.475-3.371-9.876-8.424l-16.55-208.644c-0.401-5.053,3.371-9.475,8.424-9.876
			l264.06-20.946c5.054-0.401,9.475,3.371,9.876,8.424l16.55,208.644C643.926,229.608,640.155,234.03,635.101,234.431z"/>
		
			<path style="clip-path:url(#XMLID_00000078724653983973214000000005358130146433885373_);fill:none;stroke:#FFFFFF;stroke-width:1.0589;stroke-miterlimit:10;" d="
			M472.698,575.532L38.411,609.98c-6.433,0.51-12.062-4.291-12.572-10.724L9.685,395.608c-0.51-6.433,4.291-12.062,10.725-12.572
			l434.286-34.449c6.433-0.51,12.062,4.291,12.572,10.724l16.154,203.648C483.932,569.393,479.131,575.022,472.698,575.532z"/>
		
			<line style="clip-path:url(#XMLID_00000078724653983973214000000005358130146433885373_);fill:none;stroke:#FFFFFF;stroke-width:1.5883;stroke-miterlimit:10;" x1="47.111" y1="238.053" x2="332.638" y2="215.404"/>
		<g style="clip-path:url(#XMLID_00000078724653983973214000000005358130146433885373_);">
			<path style="fill:#FFFFFF;" d="M253.828,400.651c0.115,1.449-0.966,2.717-2.415,2.832c-1.449,0.115-2.717-0.966-2.831-2.415
				c-0.115-1.449,0.966-2.716,2.415-2.831C252.445,398.121,253.713,399.202,253.828,400.651z"/>
			<path style="fill:#FFFFFF;" d="M253.013,387.821c0.115,1.449-0.966,2.716-2.415,2.831c-1.449,0.115-2.717-0.966-2.831-2.415
				c-0.115-1.449,0.966-2.716,2.415-2.831C251.631,385.291,252.898,386.372,253.013,387.821z"/>
			<path style="fill:#FFFFFF;" d="M251.997,375.007c0.115,1.449-0.966,2.717-2.415,2.831c-1.449,0.115-2.717-0.966-2.831-2.415
				c-0.115-1.449,0.966-2.716,2.415-2.831C250.614,372.477,251.882,373.558,251.997,375.007z"/>
		</g>
	</g>
	<g>
		<path style="fill:#FD9090;" d="M415.598,394.748h-89.263c-1.583,0-2.866-1.283-2.866-2.866v-22.93
			c0-1.583,1.283-2.866,2.866-2.866h89.263c1.583,0,2.866,1.283,2.866,2.866v22.93C418.465,393.465,417.181,394.748,415.598,394.748
			z"/>
		<path style="opacity:0.49;fill:#FFFFFF;" d="M413.551,383.283h-76.98c-0.45,0-0.819-0.368-0.819-0.819v-1.638
			c0-0.45,0.368-0.819,0.819-0.819h76.98c0.45,0,0.819,0.368,0.819,0.819v1.638C414.37,382.915,414.002,383.283,413.551,383.283z"/>
		<path style="opacity:0.49;fill:#FFFFFF;" d="M385.868,389.016h-49.457c-0.362,0-0.658-0.296-0.658-0.658v-1.96
			c0-0.362,0.296-0.658,0.658-0.658h49.457c0.362,0,0.658,0.296,0.658,0.658v1.96C386.526,388.72,386.23,389.016,385.868,389.016z"
			/>
		<path style="fill:#FFFFFF;" d="M384.241,375.094H336.4c-0.356,0-0.647-0.291-0.647-0.647v-1.981c0-0.356,0.291-0.647,0.647-0.647
			h47.841c0.356,0,0.647,0.291,0.647,0.647v1.981C384.889,374.803,384.597,375.094,384.241,375.094z"/>
	</g>
	<g>
		<path style="fill:#494391;" d="M439.577,356.029h-306.63c-5.868,0-10.625-4.757-10.625-10.625V103.124
			c0-5.868,4.757-10.625,10.625-10.625h306.63c5.868,0,10.625,4.757,10.625,10.625v242.279
			C450.202,351.272,445.445,356.029,439.577,356.029z"/>
		<g>
			<g>
				<defs>
					<path id="XMLID_2_" d="M434.707,351.149H126.659c-5.611,0-10.159-4.548-10.159-10.159V97.778
						c0-5.611,4.549-10.159,10.159-10.159h308.048c5.611,0,10.159,4.549,10.159,10.159v243.212
						C444.867,346.6,440.318,351.149,434.707,351.149z"/>
				</defs>
				<use xlink:href="#XMLID_2_"  style="overflow:visible;fill:#FFFFFF;"/>
				<clipPath id="XMLID_00000157288613151826619170000001542505225366701500_">
					<use xlink:href="#XMLID_2_"  style="overflow:visible;"/>
				</clipPath>
				
					<rect x="75.999" y="69.492" style="clip-path:url(#XMLID_00000157288613151826619170000001542505225366701500_);fill:#7B87F4;" width="403.76" height="58.562"/>
			</g>
			<g>
				
					<rect x="132.535" y="137.815" style="fill:none;stroke:#7B87F4;stroke-width:0.6972;stroke-miterlimit:10;" width="295.6" height="200.785"/>
				
					<line style="fill:none;stroke:#7B87F4;stroke-width:0.6972;stroke-miterlimit:10;" x1="173.319" y1="137.466" x2="173.319" y2="338.251"/>
				
					<line style="fill:none;stroke:#7B87F4;stroke-width:0.6972;stroke-miterlimit:10;" x1="216.544" y1="137.815" x2="216.544" y2="338.599"/>
				
					<line style="fill:none;stroke:#7B87F4;stroke-width:0.6972;stroke-miterlimit:10;" x1="259.071" y1="137.466" x2="259.071" y2="338.251"/>
				
					<line style="fill:none;stroke:#7B87F4;stroke-width:0.6972;stroke-miterlimit:10;" x1="302.296" y1="137.815" x2="302.296" y2="338.599"/>
				
					<line style="fill:none;stroke:#7B87F4;stroke-width:0.6972;stroke-miterlimit:10;" x1="342.731" y1="137.466" x2="342.731" y2="338.251"/>
				
					<line style="fill:none;stroke:#7B87F4;stroke-width:0.6972;stroke-miterlimit:10;" x1="385.956" y1="137.815" x2="385.956" y2="338.599"/>
				
					<line style="fill:none;stroke:#7B87F4;stroke-width:0.6972;stroke-miterlimit:10;" x1="132.883" y1="179.296" x2="428.483" y2="179.296"/>
				
					<line style="fill:none;stroke:#7B87F4;stroke-width:0.6972;stroke-miterlimit:10;" x1="133.232" y1="219.035" x2="428.832" y2="219.035"/>
				
					<line style="fill:none;stroke:#7B87F4;stroke-width:0.6972;stroke-miterlimit:10;" x1="132.883" y1="258.774" x2="428.483" y2="258.774"/>
				
					<line style="fill:none;stroke:#7B87F4;stroke-width:0.6972;stroke-miterlimit:10;" x1="133.232" y1="298.512" x2="428.832" y2="298.512"/>
			</g>
			<path style="fill:#FFFFFF;" d="M139.158,106.442c0,1.733-1.405,3.137-3.137,3.137c-1.733,0-3.137-1.405-3.137-3.137
				c0-1.733,1.405-3.137,3.137-3.137C137.753,103.305,139.158,104.709,139.158,106.442z"/>
			<path style="fill:#FD9090;" d="M150.661,106.791c0,1.733-1.405,3.137-3.137,3.137c-1.733,0-3.137-1.405-3.137-3.137
				c0-1.733,1.405-3.137,3.137-3.137C149.257,103.653,150.661,105.058,150.661,106.791z"/>
			<path style="fill:#FDC27B;" d="M162.513,106.791c0,1.733-1.405,3.137-3.137,3.137s-3.137-1.405-3.137-3.137
				c0-1.733,1.405-3.137,3.137-3.137S162.513,105.058,162.513,106.791z"/>
			<path style="fill:#ACCFFD;" d="M349.703,289.1h-75.992c-1.347,0-2.44-1.092-2.44-2.44V267.14c0-1.348,1.093-2.44,2.44-2.44
				h75.992c1.348,0,2.44,1.093,2.44,2.44v19.521C352.143,288.008,351.051,289.1,349.703,289.1z"/>
			<path style="fill:#FDC27B;" d="M205.37,208.229H158c-0.973,0-1.762-0.789-1.762-1.762v-16.694c0-0.973,0.789-1.762,1.762-1.762
				h47.369c0.973,0,1.762,0.789,1.762,1.762v16.694C207.132,207.44,206.343,208.229,205.37,208.229z"/>
			<g>
				<path style="fill:#FD9090;" d="M222.818,172.673h-75.992c-1.348,0-2.44-1.092-2.44-2.44v-19.521c0-1.347,1.092-2.44,2.44-2.44
					h75.992c1.348,0,2.44,1.093,2.44,2.44v19.521C225.258,171.581,224.166,172.673,222.818,172.673z"/>
				<path style="fill:#FFFFFF;" d="M216.892,155.244h-65.534c-0.383,0-0.697-0.314-0.697-0.697v-1.394
					c0-0.384,0.314-0.697,0.697-0.697h65.534c0.383,0,0.697,0.314,0.697,0.697v1.394
					C217.589,154.93,217.276,155.244,216.892,155.244z"/>
				<path style="opacity:0.49;fill:#FFFFFF;" d="M216.892,160.124h-65.534c-0.383,0-0.697-0.314-0.697-0.697v-1.394
					c0-0.383,0.314-0.697,0.697-0.697h65.534c0.383,0,0.697,0.314,0.697,0.697v1.394
					C217.589,159.81,217.276,160.124,216.892,160.124z"/>
				<path style="opacity:0.49;fill:#FFFFFF;" d="M193.325,165.004h-42.104c-0.308,0-0.56-0.252-0.56-0.56v-1.668
					c0-0.308,0.252-0.56,0.56-0.56h42.104c0.308,0,0.56,0.252,0.56,0.56v1.668C193.886,164.752,193.634,165.004,193.325,165.004z"/>
			</g>
			<g>
				<path style="fill:#FD9090;" d="M370.618,328.142h-75.991c-1.348,0-2.44-1.092-2.44-2.44v-19.521c0-1.348,1.092-2.44,2.44-2.44
					h75.991c1.348,0,2.44,1.092,2.44,2.44v19.521C373.058,327.05,371.966,328.142,370.618,328.142z"/>
				<path style="opacity:0.49;fill:#FFFFFF;" d="M365.389,319.079h-65.534c-0.384,0-0.697-0.314-0.697-0.697v-1.394
					c0-0.384,0.314-0.697,0.697-0.697h65.534c0.383,0,0.697,0.314,0.697,0.697v1.394
					C366.087,318.765,365.773,319.079,365.389,319.079z"/>
				<path style="opacity:0.49;fill:#FFFFFF;" d="M341.822,323.959h-42.104c-0.308,0-0.56-0.252-0.56-0.56v-1.668
					c0-0.308,0.252-0.56,0.56-0.56h42.104c0.308,0,0.56,0.252,0.56,0.56v1.668C342.383,323.707,342.131,323.959,341.822,323.959z"/>
				<path style="fill:#FFFFFF;" d="M340.437,312.107h-40.728c-0.303,0-0.551-0.248-0.551-0.551v-1.686
					c0-0.303,0.248-0.551,0.551-0.551h40.728c0.303,0,0.551,0.248,0.551,0.551v1.686
					C340.988,311.859,340.74,312.107,340.437,312.107z"/>
			</g>
			<g>
				<path style="fill:#ACCFFD;" d="M326.697,243.785h-75.992c-1.348,0-2.44-1.092-2.44-2.44v-19.521c0-1.348,1.092-2.44,2.44-2.44
					h75.992c1.348,0,2.44,1.092,2.44,2.44v19.521C329.137,242.692,328.044,243.785,326.697,243.785z"/>
				<path style="opacity:0.49;fill:#FFFFFF;" d="M324.954,234.024H259.42c-0.384,0-0.697-0.314-0.697-0.697v-1.394
					c0-0.383,0.314-0.697,0.697-0.697h65.534c0.383,0,0.697,0.314,0.697,0.697v1.394
					C325.651,233.71,325.337,234.024,324.954,234.024z"/>
				<path style="opacity:0.49;fill:#FFFFFF;" d="M301.387,238.904h-42.104c-0.308,0-0.56-0.252-0.56-0.56v-1.668
					c0-0.308,0.252-0.56,0.56-0.56h42.104c0.308,0,0.56,0.252,0.56,0.56v1.668C301.947,238.652,301.695,238.904,301.387,238.904z"/>
				<path style="fill:#FFFFFF;" d="M300.001,227.052h-40.728c-0.303,0-0.551-0.248-0.551-0.551v-1.686
					c0-0.303,0.248-0.551,0.551-0.551h40.728c0.303,0,0.551,0.248,0.551,0.551v1.686
					C300.553,226.804,300.305,227.052,300.001,227.052z"/>
			</g>
			<g>
				<path style="fill:#FDC27B;" d="M424.109,205.44h-77.003c-1.068,0-1.935-0.866-1.935-1.934v-11.469
					c0-1.068,0.866-1.935,1.935-1.935h77.003c1.069,0,1.935,0.866,1.935,1.935v11.469
					C426.043,204.574,425.177,205.44,424.109,205.44z"/>
				<path style="opacity:0.49;fill:#FFFFFF;" d="M416.283,202.652h-65.534c-0.383,0-0.697-0.314-0.697-0.697v-1.394
					c0-0.383,0.314-0.697,0.697-0.697h65.534c0.383,0,0.697,0.314,0.697,0.697v1.394
					C416.98,202.338,416.666,202.652,416.283,202.652z"/>
				<path style="fill:#FFFFFF;" d="M391.331,196.377h-40.728c-0.303,0-0.551-0.248-0.551-0.551v-1.686
					c0-0.303,0.248-0.551,0.551-0.551h40.728c0.303,0,0.551,0.248,0.551,0.551v1.686
					C391.882,196.129,391.634,196.377,391.331,196.377z"/>
			</g>
			<g>
				<path style="fill:#FD9090;" d="M162.836,255.636h-24.349c-1.362,0-2.466-1.104-2.466-2.466v-24.349
					c0-1.362,1.104-2.466,2.466-2.466h24.349c1.362,0,2.466,1.104,2.466,2.466v24.349
					C165.302,254.532,164.198,255.636,162.836,255.636z"/>
				<path style="fill:#FFFFFF;" d="M153.45,241.693c0,3.08-2.497,5.577-5.577,5.577c-3.08,0-5.577-2.497-5.577-5.577
					c0-3.08,2.497-5.577,5.577-5.577C150.953,236.116,153.45,238.613,153.45,241.693z"/>
			</g>
			<g>
				<path style="fill:#ACCFFD;" d="M374.078,174.765h-24.349c-1.362,0-2.466-1.104-2.466-2.466V147.95
					c0-1.362,1.104-2.466,2.466-2.466h24.349c1.362,0,2.466,1.104,2.466,2.466v24.349
					C376.544,173.661,375.44,174.765,374.078,174.765z"/>
				<path style="fill:#FFFFFF;" d="M359.115,154.895c0,1.348-1.092,2.44-2.44,2.44c-1.348,0-2.44-1.092-2.44-2.44
					c0-1.348,1.092-2.44,2.44-2.44C358.022,152.455,359.115,153.548,359.115,154.895z"/>
				<path style="fill:#FFFFFF;" d="M361.904,163.959c0-2.503,2.029-4.532,4.532-4.532c2.503,0,4.531,2.029,4.531,4.532
					s-2.029,4.532-4.531,4.532C363.932,168.49,361.904,166.461,361.904,163.959z"/>
			</g>
			<g>
				<path style="fill:#FDC27B;" d="M247.89,345.571h-24.349c-1.362,0-2.466-1.104-2.466-2.466v-24.349
					c0-1.362,1.104-2.466,2.466-2.466h24.349c1.362,0,2.466,1.104,2.466,2.466v24.349
					C250.356,344.467,249.252,345.571,247.89,345.571z"/>
				<path style="fill:#FFFFFF;" d="M241.99,338.948c0,1.348-1.092,2.44-2.44,2.44c-1.348,0-2.44-1.093-2.44-2.44
					c0-1.348,1.092-2.44,2.44-2.44C240.898,336.508,241.99,337.601,241.99,338.948z"/>
				<path style="fill:#FFFFFF;" d="M239.899,328.839c0,2.695-2.185,4.88-4.88,4.88c-2.695,0-4.88-2.185-4.88-4.88
					c0-2.695,2.185-4.88,4.88-4.88C237.714,323.959,239.899,326.144,239.899,328.839z"/>
			</g>
			<path style="fill:#FDC27B;" d="M425.695,109.928h-92.026c-1.733,0-3.137-1.405-3.137-3.137l0,0c0-1.733,1.405-3.137,3.137-3.137
				h92.026c1.733,0,3.137,1.405,3.137,3.137l0,0C428.832,108.523,427.427,109.928,425.695,109.928z"/>
		</g>
	</g>
	<g>
		<path style="fill:#FDC27B;" d="M158.716,94.389H69.452c-1.583,0-2.866-1.283-2.866-2.866v-22.93c0-1.583,1.283-2.866,2.866-2.866
			h89.263c1.583,0,2.866,1.283,2.866,2.866v22.93C161.582,93.105,160.299,94.389,158.716,94.389z"/>
		<path style="opacity:0.49;fill:#FFFFFF;" d="M156.668,82.924H79.689c-0.45,0-0.819-0.368-0.819-0.819v-1.638
			c0-0.45,0.368-0.819,0.819-0.819h76.979c0.451,0,0.819,0.369,0.819,0.819v1.638C157.487,82.555,157.119,82.924,156.668,82.924z"/>
		<path style="opacity:0.49;fill:#FFFFFF;" d="M128.986,88.656H79.528c-0.362,0-0.658-0.296-0.658-0.658v-1.96
			c0-0.362,0.296-0.658,0.658-0.658h49.458c0.362,0,0.658,0.296,0.658,0.658v1.96C129.644,88.36,129.348,88.656,128.986,88.656z"/>
		<path style="fill:#FFFFFF;" d="M127.358,74.734H79.517c-0.356,0-0.647-0.291-0.647-0.647v-1.981c0-0.356,0.291-0.647,0.647-0.647
			h47.841c0.356,0,0.647,0.291,0.647,0.647v1.981C128.006,74.443,127.715,74.734,127.358,74.734z"/>
	</g>
	<ellipse style="opacity:0.29;fill:#ACCFFD;" cx="163.274" cy="475.055" rx="54.315" ry="5.333"/>
	<g>
		<g>
			<defs>
				<path id="XMLID_4_" d="M174.961,460.82l1.839,9.744c0,0-0.919,5.516,0,6.435c0.919,0.919,21.975,0.262,22.986-0.615
					c2.35-2.038-17.011-6.188-17.011-6.188l-1.195-12.87L174.961,460.82z"/>
			</defs>
			<use xlink:href="#XMLID_4_"  style="overflow:visible;fill:#FC8B8C;"/>
			<clipPath id="XMLID_00000067958303393192983030000000490282739393734020_">
				<use xlink:href="#XMLID_4_"  style="overflow:visible;"/>
			</clipPath>
			<path style="clip-path:url(#XMLID_00000067958303393192983030000000490282739393734020_);fill:#494391;" d="M172.509,470.993
				c0,0,11.913,1.471,18.091-4.658c6.178-6.128,10.345,14.708,10.345,14.708l-18.165,5.393l-14.438-7.354L172.509,470.993z"/>
		</g>
		<g>
			<defs>
				<path id="XMLID_5_" d="M120.777,450.895l-0.853,16.046c0,0-0.615,5.289,0,6.435c0.525,0.98,11.554,1.573,13.789,0
					c1.094-0.771-7.814-6.802-7.814-6.802l4.193-11.757L120.777,450.895z"/>
			</defs>
			<use xlink:href="#XMLID_5_"  style="overflow:visible;fill:#FC8B8C;"/>
			<clipPath id="XMLID_00000164485302588868528060000006266605318186504865_">
				<use xlink:href="#XMLID_5_"  style="overflow:visible;"/>
			</clipPath>
			<path style="clip-path:url(#XMLID_00000164485302588868528060000006266605318186504865_);fill:#494391;" d="M115.634,467.37
				c0,0,11.913,1.471,18.091-4.658c6.178-6.128,10.345,14.708,10.345,14.708l-18.164,5.393l-14.438-7.354L115.634,467.37z"/>
		</g>
		<path style="fill:#FC8B8C;" d="M237.268,202.54l6.465-5.99c0,0,2.92-7.3,5.84-8.76c2.92-1.46,4.015-2.555,4.745-2.92
			c0.73-0.365,5.84-8.395,6.935-7.665s-4.745,9.49-4.745,9.49s2.19,4.015,2.19,6.57c0,2.555-9.49,7.3-9.49,7.3l-8.03,12.41
			L237.268,202.54z"/>
		<g>
			<path style="fill:none;stroke:#494391;stroke-width:0.6403;stroke-miterlimit:10;" d="M164.71,155.99
				c0.585,2.456,0.033,4.691-1.232,4.992c-1.265,0.301-2.764-1.446-3.349-3.901c-0.585-2.456-0.033-4.691,1.232-4.992
				C162.626,151.788,164.126,153.535,164.71,155.99z"/>
			<g>
				<defs>
					<polygon id="XMLID_1_" points="182.78,307.926 182.78,464.575 169.017,465.922 155.292,340.803 131.135,460.575 
						119.445,460.907 128.229,307.554 					"/>
				</defs>
				<use xlink:href="#XMLID_1_"  style="overflow:visible;fill:#FDC27B;"/>
				<clipPath id="XMLID_00000084504873537728124560000004194998536881511833_">
					<use xlink:href="#XMLID_1_"  style="overflow:visible;"/>
				</clipPath>
				<path style="opacity:0.35;clip-path:url(#XMLID_00000084504873537728124560000004194998536881511833_);fill:#FDC27B;" d="
					M151.754,356.681c0.348,0.116,0.696-0.521,1.029-1.602c1.256-4.078,2.295-14.466,2.295-14.466l-0.554-21.053
					c0,0-5.54,13.851-3.878,17.175c1.662,3.324-10.527,4.432-6.094,9.973c4.432,5.54-5.54,9.973,3.878,16.621
					C157.849,369.978,151.754,356.681,151.754,356.681z"/>
				<g style="clip-path:url(#XMLID_00000084504873537728124560000004194998536881511833_);">
					<path style="fill:#494391;" d="M167.544,329.256c-5.193,0-9.418-7.581-9.418-16.898c0-9.318,4.225-16.898,9.418-16.898
						c5.194,0,9.419,7.581,9.419,16.898C176.963,321.675,172.738,329.256,167.544,329.256z M167.544,296.014
						c-4.888,0-8.864,7.332-8.864,16.344c0,9.012,3.977,16.344,8.864,16.344c4.888,0,8.865-7.332,8.865-16.344
						C176.409,303.346,172.432,296.014,167.544,296.014z"/>
				</g>
				<g style="clip-path:url(#XMLID_00000084504873537728124560000004194998536881511833_);">
					<path style="fill:#494391;" d="M137.453,329.338c-0.327,0-0.654-0.03-0.978-0.09c-5.106-0.95-7.873-9.175-6.169-18.336
						c1.704-9.159,7.248-15.841,12.35-14.89c5.106,0.95,7.873,9.175,6.169,18.336C147.23,322.935,142.27,329.338,137.453,329.338z
						 M141.658,296.484c-4.545,0-9.261,6.218-10.808,14.53c-1.648,8.86,0.92,16.795,5.726,17.69
						c4.803,0.892,10.056-5.587,11.704-14.448c1.648-8.86-0.92-16.795-5.726-17.69C142.258,296.511,141.958,296.484,141.658,296.484
						z"/>
				</g>
				<path style="clip-path:url(#XMLID_00000084504873537728124560000004194998536881511833_);fill:#494391;" d="M125.161,309.588
					c0,0,33.242,9.973,58.728,0C209.374,299.615,127.931,296.291,125.161,309.588z"/>
				<g style="clip-path:url(#XMLID_00000084504873537728124560000004194998536881511833_);">
					<g>
						<path style="fill:#494391;" d="M116.469,365.409c3.217,0,3.223-5,0-5C113.251,360.409,113.246,365.409,116.469,365.409
							L116.469,365.409z"/>
					</g>
				</g>
				
					<line style="clip-path:url(#XMLID_00000084504873537728124560000004194998536881511833_);fill:none;stroke:#494391;stroke-width:0.5;stroke-miterlimit:10;" x1="178.509" y1="305.618" x2="178.509" y2="469.242"/>
			</g>
			<path style="fill:#7588EC;" d="M156.145,194.102c0,0,5.003-5.034,26.98,7.953c21.977,12.987,23.975,13.986,23.975,13.986
				l30.968-23.975l9.99,11.988c0,0-23.591,38.161-37.576,40.159s-28.81-4.986-28.81-4.986l2.77,70.362
				c0,0-29.364,7.202-57.066-1.662l-9.184-50.928c0,0-10.989-6.993-8.991-30.968c1.998-23.975,26.639-33.965,26.639-33.965
				L156.145,194.102z"/>
			<path style="fill:#FC8B8C;" d="M153.618,180.178c10.083,1.455,10.865-2.589,10.27-13.562
				c-0.594-10.972-5.737-19.505-5.737-19.505c-18.244-11.493-18.856,15.406-17.89,30.536c0.384,6.009-2.267,11.804-7.084,15.417l0,0
				c9.99,8.991,24.974,0,24.974,0l-0.161-0.242C155.476,189.05,153.97,184.697,153.618,180.178L153.618,180.178z"/>
			<path style="fill:#0F0F0F;" d="M151.972,168.262c0,0,0.432,7.98-5.391,11.297c-5.823,3.317-22.377-6.791-21.734-31.837
				c0,0,8.329-12.456,19.247-14.049c10.918-1.592,11.243,4.393,11.243,4.393s4.879-2.265,6.201,3.666
				c1.322,5.931-10.486,9.572-10.486,9.572s4.477,8.761,2.698,12.86C151.972,168.262,151.972,168.262,151.972,168.262z"/>
			<g>
				<path style="fill:#494391;" d="M205.941,244.642c-21.557,0-31.028-10.661-31.127-10.776l0.419-0.363
					c0.104,0.121,10.746,12.063,35.23,10.432c0.06-0.005,6.626-0.681,15.033-10.431l0.42,0.361
					c-8.574,9.944-15.136,10.599-15.411,10.622C208.929,244.593,207.405,244.642,205.941,244.642z"/>
			</g>
			<g>
				
					<rect x="117.494" y="233.67" transform="matrix(0.9855 -0.1698 0.1698 0.9855 -41.3802 23.6821)" style="fill:#494391;" width="0.554" height="40.215"/>
			</g>
			<g>
				<path style="fill:#0F0F0F;" d="M127.405,148.751c-1.278-1.077-2.36-2.321-3.235-3.745c-0.42-0.682-1.498-0.057-1.076,0.629
					c0.928,1.51,2.075,2.855,3.43,3.998C127.133,150.146,128.019,149.269,127.405,148.751L127.405,148.751z"/>
			</g>
			<g>
				<path style="fill:#0F0F0F;" d="M127.15,148.111c-1.409-0.465-2.86-0.673-4.343-0.626c-0.8,0.025-0.804,1.272,0,1.247
					c1.379-0.043,2.702,0.15,4.012,0.582C127.582,149.565,127.91,148.361,127.15,148.111L127.15,148.111z"/>
			</g>
			
				<line style="fill:none;stroke:#494391;stroke-width:0.6403;stroke-miterlimit:10;" x1="150.369" y1="163.6" x2="164.472" y2="155.173"/>
			<path style="fill:#FC8B8C;" d="M153.419,164.124c1.449,1.664,1.612,3.895,0.364,4.982s-3.435,0.619-4.884-1.045
				c-1.449-1.664-1.612-3.895-0.364-4.981S151.969,162.459,153.419,164.124z"/>
		</g>
	</g>
</g>
</svg>
